<svg viewBox="0 0 57.99 58.16" xmlns="http://www.w3.org/2000/svg"><circle cx="22.19" cy="16.63" fill="#ebbc48" r="16.63"/><path d="m46.29 40.08a9.56 9.56 0 0 1 1.47 4.58 20 20 0 0 1 .12 2.74.18.18 0 0 1 -.24.15 25.91 25.91 0 0 1 -2.75-1.15 11.22 11.22 0 0 1 -4.1-3c-2.3-3.13-.63-4.64.2-5.15s3-1.34 5.3 1.8" fill="#006937"/><path d="m46 40.26c-1.5-2-3.26-2.66-4.81-1.71s-1.6 2.66-.1 4.7 5.43 3.55 6.44 3.91c0-1 0-4.88-1.53-6.9" fill="#4c9c2e"/><g fill="#006937"><path d="m40.44 37.24-.3.19 7.41 10.06.3-.18z"/><path d="m42.3 40.28-.85 3.74.35.06.85-3.74z"/><path d="m44.55 43.33-.58 2.58.34.06.59-2.58z"/><path d="m42.52 40.15-.08.32 4.14.71.07-.32z"/><path d="m44.76 43.2-.07.32 2.85.49.08-.32z"/><path d="m30.05 50.67a9.76 9.76 0 0 1 1.46 4.59 20 20 0 0 1 .12 2.74.19.19 0 0 1 -.24.15 26.29 26.29 0 0 1 -2.74-1.15 11.18 11.18 0 0 1 -4.11-3c-2.3-3.13-.63-4.64.2-5.15s3-1.34 5.31 1.79"/></g><path d="m29.75 50.86c-1.5-2-3.25-2.66-4.81-1.71s-1.6 2.66-.1 4.69 5.43 3.56 6.44 3.92c0-1 0-4.88-1.53-6.9" fill="#4c9c2e"/><path d="m24.19 47.84-.3.18 7.41 10.07.3-.18z" fill="#006937"/><path d="m26.06 50.88-.85 3.74.35.06.85-3.74z" fill="#006937"/><path d="m28.3 53.93-.58 2.58.35.06.58-2.58z" fill="#006937"/><path d="m26.27 50.75-.07.31 4.13.71.07-.31z" fill="#006937"/><path d="m28.51 53.8-.07.32 2.86.49.07-.32z" fill="#006937"/><path d="m31.1 35.66a9.61 9.61 0 0 1 1.47 4.59 20 20 0 0 1 .12 2.75.2.2 0 0 1 -.24.15 28.7 28.7 0 0 1 -2.75-1.15 11.11 11.11 0 0 1 -4.1-3c-2.31-3.13-.63-4.64.2-5.14s3-1.34 5.3 1.79" fill="#006937"/><path d="m30.8 35.84c-1.49-2-3.25-2.65-4.81-1.7s-1.59 2.66-.09 4.69 5.43 3.55 6.44 3.92c0-1 0-4.88-1.54-6.91" fill="#4c9c2e"/><path d="m25.25 32.83-.3.18 7.41 10.06.3-.18z" fill="#006937"/><path d="m27.11 35.86-.85 3.75.35.06.85-3.75z" fill="#006937"/><path d="m29.36 38.91-.59 2.59.35.06.59-2.59z" fill="#006937"/><path d="m27.32 35.73-.07.32 4.13.71.07-.31z" fill="#006937"/><path d="m29.57 38.79-.07.31 2.85.49.07-.31z" fill="#006937"/><path d="m58 28.4a7.37 7.37 0 0 0 -7.38-7.4 7.93 7.93 0 0 0 -1 .07 9.62 9.62 0 0 0 -8.24-4.64 9.31 9.31 0 0 0 -2.25.28 12.95 12.95 0 0 0 -24.22 4 7.91 7.91 0 0 0 -1.7-.2 7.62 7.62 0 0 0 -7.61 7.62v.65a3.63 3.63 0 0 0 -1.9-.54 3.75 3.75 0 0 0 -.13 7.49l48-.08a7.36 7.36 0 0 0 6.43-7.25z" fill="#fff"/></svg>