<svg xmlns="http://www.w3.org/2000/svg" viewBox="0 0 65.55 50.29"><defs><style>.cls-1{fill:#ea7600}.cls-2{fill:#00a1e0}.cls-3{fill:#80c5e0}.cls-4{fill:#ebbc48}</style></defs><title>level-up</title><g id="Layer_2" data-name="Layer 2"><g id="Layer_1-2" data-name="Layer 1"><path d="M46.81 10l-1.71-.57a6 6 0 0 0-4.7.49l-.53.3a6 6 0 0 1-4.51.55l-1.88-.52a.47.47 0 0 1-.36-.47V1.66a.49.49 0 0 1 .62-.48l1.35.38a6 6 0 0 0 4.76-.67 6 6 0 0 1 4.74-.67l2.5.69a.49.49 0 0 1 .36.47v8.11a.49.49 0 0 1-.64.51z" class="cls-1"/><path d="M38.42 42.22l13.56-19.38 13.57 19.38H38.42z" class="cls-2"/><path d="M52 42.22V22.84L38.43 42.22H52z" class="cls-3"/><path d="M0 42.22l13.56-19.38 13.57 19.38H0z" class="cls-2"/><path d="M13.58 42.22V22.84L.01 42.22h13.57z" class="cls-3"/><path d="M7.92 50.29l24.86-35.53 24.86 35.53H7.92z" class="cls-2"/><path d="M32.8 50.29V14.76L7.94 50.29H32.8z" class="cls-3"/><path d="M23.69 9a3 3 0 0 1-4.28 0A.29.29 0 0 0 19 9a.29.29 0 0 0 0 .42 3 3 0 0 1 0 4.28.31.31 0 0 0 0 .42.32.32 0 0 0 .42 0 3 3 0 0 1 4.27 0 .3.3 0 0 0 .43 0 .31.31 0 0 0 0-.43 3 3 0 0 1 0-4.27.3.3 0 0 0-.43-.42zM23.94 18.13a1 1 0 0 1-1.42 0 .1.1 0 0 0-.14 0 .1.1 0 0 0 0 .14 1 1 0 0 1 0 1.41.1.1 0 0 0 0 .14.11.11 0 0 0 .14 0 1 1 0 0 1 1.42 0 .1.1 0 0 0 .14 0 .1.1 0 0 0 0-.14 1 1 0 0 1 0-1.42.11.11 0 0 0 0-.14.1.1 0 0 0-.14.01zM29.42 9.05a1 1 0 0 1-1.41 0 .1.1 0 0 0-.14 0 .1.1 0 0 0 0 .14 1 1 0 0 1 0 1.42.1.1 0 0 0 .14.14 1 1 0 0 1 1.41 0 .1.1 0 0 0 .14 0 .12.12 0 0 0 0-.14 1 1 0 0 1 0-1.42.09.09 0 0 0 0-.13.11.11 0 0 0-.14-.01z" class="cls-4"/></g></g></svg>